# xmcd
#
# Track frame offsets: 
#        150
#        17172
#        39192
#        62747
#
# Disc length: 904 seconds
#
# Revision: 0
# Processed by: cddbd v1.5PL3 Copyright (c) Steve Scherf et al.
# Submitted via: ExactAudioCopy v0.95a5
#
DISCID=28038604
DTITLE=Pat Green - Three Days
DYEAR=2001
DGENRE=
TTITLE0=Three Days
TTITLE1=Threadbare Gypsy Soul
TTITLE2=Southbound 35
TTITLE3=Carry On (excerpt)
EXTD=
EXTT0=
EXTT1=
EXTT2=
EXTT3=
PLAYORDER=
